<svg width="13" height="13" viewBox="0 0 13 13" fill="none" xmlns="http://www.w3.org/2000/svg">
<path d="M6.60002 5.00001H7.73335V3.30001H9.43335V2.16667H7.73335V0.466675H6.60002V2.16667H4.90002V3.30001H6.60002V5.00001ZM4.33335 10.1C3.71002 10.1 3.20568 10.61 3.20568 11.2333C3.20568 11.8567 3.71002 12.3667 4.33335 12.3667C4.95668 12.3667 5.46668 11.8567 5.46668 11.2333C5.46668 10.61 4.95668 10.1 4.33335 10.1ZM10 10.1C9.37668 10.1 8.87235 10.61 8.87235 11.2333C8.87235 11.8567 9.37668 12.3667 10 12.3667C10.6234 12.3667 11.1334 11.8567 11.1334 11.2333C11.1334 10.61 10.6234 10.1 10 10.1ZM4.42968 8.25834L4.44668 8.19034L4.95668 7.26668H9.17835C9.60335 7.26668 9.97735 7.03434 10.17 6.68301L12.3574 2.71068L11.3714 2.16667H11.3657L10.7424 3.30001L9.17835 6.13334H5.20035L5.12668 5.98034L3.85735 3.30001L3.31902 2.16667L2.78635 1.03334H0.93335V2.16667H2.06668L4.10668 6.46768L3.34168 7.85601C3.25102 8.01468 3.20002 8.20168 3.20002 8.40001C3.20002 9.02334 3.71002 9.53334 4.33335 9.53334H11.1334V8.40001H4.57135C4.49768 8.40001 4.42968 8.33768 4.42968 8.25834Z" fill="white"/>
</svg>
